<svg xmlns="http://www.w3.org/2000/svg" id="my-svg" width="100%" aria-roledescription="flowchart-v2" class="flowchart" style="font-family:&quot;trebuchet ms&quot;,verdana,arial,sans-serif;font-size:16px;fill:#333;max-width:428.911px;background-color:transparent" viewBox="0 0 428.911 731.781"><style>@keyframes edge-animation-frame{0%{stroke-dashoffset:0}}@keyframes dash{to{stroke-dashoffset:0}}#my-svg .edge-thickness-normal{stroke-width:1px}#my-svg .edge-pattern-solid{stroke-dasharray:0}#my-svg .marker{fill:#333;stroke:#333}#my-svg .marker.cross{stroke:#333}#my-svg .label,#my-svg svg{font-family:&quot;trebuchet ms&quot;,verdana,arial,sans-serif}#my-svg svg{font-size:16px}#my-svg p{margin:0}#my-svg .label{color:#333}#my-svg span{fill:#333;color:#333}#my-svg .node circle,#my-svg .node path,#my-svg .node rect{fill:#ececff;stroke:#9370db;stroke-width:1px}#my-svg .flowchart-link{stroke:#333;fill:none}#my-svg .edgeLabel,#my-svg .node .label{text-align:center}#my-svg .edgeLabel,#my-svg .edgeLabel p,#my-svg .edgeLabel rect{background-color:rgba(232,232,232,.8)}#my-svg .edgeLabel rect{opacity:.5;fill:rgba(232,232,232,.8)}#my-svg .labelBkg{background-color:rgba(232,232,232,.5)}#my-svg [data-look=neo].node circle,#my-svg [data-look=neo].node rect{stroke:#9370db;filter:drop-shadow(1px 2px 2px #b9b9b9)}#my-svg [data-look=neo].node path{stroke:#9370db;stroke-width:1px}#my-svg [data-look=neo].node .outer-path{filter:drop-shadow(1px 2px 2px #b9b9b9)}#my-svg :root{--mermaid-font-family:&quot;trebuchet ms&quot;,verdana,arial,sans-serif}</style><marker id="my-svg_flowchart-v2-pointEnd" class="marker flowchart-v2" markerHeight="8" markerUnits="userSpaceOnUse" markerWidth="8" orient="auto" refX="5" refY="5" viewBox="0 0 10 10"><path d="m0 0 10 5-10 5z" class="arrowMarkerPath" style="stroke-width:1;stroke-dasharray:1,0"/></marker><marker id="my-svg_flowchart-v2-pointStart" class="marker flowchart-v2" markerHeight="8" markerUnits="userSpaceOnUse" markerWidth="8" orient="auto" refX="4.5" refY="5" viewBox="0 0 10 10"><path d="m0 5 10 5V0z" class="arrowMarkerPath" style="stroke-width:1;stroke-dasharray:1,0"/></marker><marker id="my-svg_flowchart-v2-pointEnd-margin" class="marker flowchart-v2" markerHeight="14" markerUnits="userSpaceOnUse" markerWidth="10.5" orient="auto" refX="11.5" refY="7" viewBox="0 0 11.5 14"><path d="m0 0 11.5 7L0 14z" class="arrowMarkerPath" style="stroke-width:0;stroke-dasharray:1,0"/></marker><marker id="my-svg_flowchart-v2-pointStart-margin" class="marker flowchart-v2" markerHeight="14" markerUnits="userSpaceOnUse" markerWidth="11.5" orient="auto" refX="1" refY="7" viewBox="0 0 11.5 14"><path d="m0 7 11.5 7V0z" class="arrowMarkerPath" style="stroke-width:0;stroke-dasharray:1,0"/></marker><marker id="my-svg_flowchart-v2-circleEnd" class="marker flowchart-v2" markerHeight="11" markerUnits="userSpaceOnUse" markerWidth="11" orient="auto" refX="11" refY="5" viewBox="0 0 10 10"><circle cx="5" cy="5" r="5" class="arrowMarkerPath" style="stroke-width:1;stroke-dasharray:1,0"/></marker><marker id="my-svg_flowchart-v2-circleStart" class="marker flowchart-v2" markerHeight="11" markerUnits="userSpaceOnUse" markerWidth="11" orient="auto" refX="-1" refY="5" viewBox="0 0 10 10"><circle cx="5" cy="5" r="5" class="arrowMarkerPath" style="stroke-width:1;stroke-dasharray:1,0"/></marker><marker id="my-svg_flowchart-v2-circleEnd-margin" class="marker flowchart-v2" markerHeight="14" markerUnits="userSpaceOnUse" markerWidth="14" orient="auto" refX="12.25" refY="5" viewBox="0 0 10 10"><circle cx="5" cy="5" r="5" class="arrowMarkerPath" style="stroke-width:0;stroke-dasharray:1,0"/></marker><marker id="my-svg_flowchart-v2-circleStart-margin" class="marker flowchart-v2" markerHeight="14" markerUnits="userSpaceOnUse" markerWidth="14" orient="auto" refX="-2" refY="5" viewBox="0 0 10 10"><circle cx="5" cy="5" r="5" class="arrowMarkerPath" style="stroke-width:0;stroke-dasharray:1,0"/></marker><marker id="my-svg_flowchart-v2-crossEnd" class="marker cross flowchart-v2" markerHeight="11" markerUnits="userSpaceOnUse" markerWidth="11" orient="auto" refX="12" refY="5.2" viewBox="0 0 11 11"><path d="m1 1 9 9m0-9-9 9" class="arrowMarkerPath" style="stroke-width:2;stroke-dasharray:1,0"/></marker><marker id="my-svg_flowchart-v2-crossStart" class="marker cross flowchart-v2" markerHeight="11" markerUnits="userSpaceOnUse" markerWidth="11" orient="auto" refX="-1" refY="5.2" viewBox="0 0 11 11"><path d="m1 1 9 9m0-9-9 9" class="arrowMarkerPath" style="stroke-width:2;stroke-dasharray:1,0"/></marker><marker id="my-svg_flowchart-v2-crossEnd-margin" class="marker cross flowchart-v2" markerHeight="12" markerUnits="userSpaceOnUse" markerWidth="12" orient="auto" refX="17.7" refY="7.5" viewBox="0 0 15 15"><path d="m1 1 13 13M1 14 14 1" class="arrowMarkerPath" style="stroke-width:2.5"/></marker><marker id="my-svg_flowchart-v2-crossStart-margin" class="marker cross flowchart-v2" markerHeight="12" markerUnits="userSpaceOnUse" markerWidth="12" orient="auto" refX="-3.5" refY="7.5" viewBox="0 0 15 15"><path d="m1 1 13 13M1 14 14 1" class="arrowMarkerPath" style="stroke-width:2.5;stroke-dasharray:1,0"/></marker><g class="root"><g class="edgePaths"><path id="my-svg-L_C_D_0" marker-end="url(#my-svg_flowchart-v2-pointEnd)" d="m134.465 47.5-.083 4.083c-.083 4.084-.25 12.25-.333 19.834S133.965 86 133.965 89.5V93" class="edge-thickness-normal edge-pattern-solid edge-thickness-normal edge-pattern-solid flowchart-link" data-edge="true" data-et="edge" data-id="L_C_D_0" data-look="classic" data-points="W3sieCI6MTM0LjQ2NTQzOTc5NjQ0Nzc1LCJ5Ijo0Ny41MDAwMDAwMDAwMDAwMX0seyJ4IjoxMzMuOTY1NDM5Nzk2NDQ3NzUsInkiOjcyfSx7IngiOjEzMy45NjU0Mzk3OTY0NDc3NSwieSI6OTd9XQ=="/><path id="my-svg-L_D_X_0" marker-end="url(#my-svg_flowchart-v2-pointEnd)" d="m94.738 240.039-9.601 12.704c-9.601 12.705-28.804 38.114-38.329 57.651s-9.374 33.205-9.298 40.038l.076 6.834" class="edge-thickness-normal edge-pattern-solid edge-thickness-normal edge-pattern-solid flowchart-link" data-edge="true" data-et="edge" data-id="L_D_X_0" data-look="classic" data-points="W3sieCI6OTQuNzM4MzI5MDg2MDIwNjMsInkiOjI0MC4wMzg1MTQyODk1NzI4N30seyJ4IjozNy4xMzA2MDU2OTc2MzE4MzYsInkiOjMxNi4yNjU2MjV9LHsieCI6MzcuNjMwNjA1Njk3NjMxODM2LCJ5IjozNjEuMjY1NjI0OTk5OTk5OX1d"/><path id="my-svg-L_D_F_0" marker-end="url(#my-svg_flowchart-v2-pointEnd)" d="m173.193 240.039 9.601 12.704c9.601 12.705 28.804 38.114 38.405 56.318s9.601 29.205 9.601 34.705v5.5" class="edge-thickness-normal edge-pattern-solid edge-thickness-normal edge-pattern-solid flowchart-link" data-edge="true" data-et="edge" data-id="L_D_F_0" data-look="classic" data-points="W3sieCI6MTczLjE5MjU1MDUwNjg3NDg4LCJ5IjoyNDAuMDM4NTE0Mjg5NTcyODd9LHsieCI6MjMwLjgwMDI3Mzg5NTI2MzY3LCJ5IjozMTYuMjY1NjI1fSx7IngiOjIzMC44MDAyNzM4OTUyNjM2NywieSI6MzUzLjI2NTYyNX1d"/><path id="my-svg-L_F_V_0" marker-end="url(#my-svg_flowchart-v2-pointEnd)" d="M230.8 407.266v46" class="edge-thickness-normal edge-pattern-solid edge-thickness-normal edge-pattern-solid flowchart-link" data-edge="true" data-et="edge" data-id="L_F_V_0" data-look="classic" data-points="W3sieCI6MjMwLjgwMDI3Mzg5NTI2MzY3LCJ5Ijo0MDcuMjY1NjI1fSx7IngiOjIzMC44MDAyNzM4OTUyNjM2NywieSI6NDMyLjI2NTYyNX0seyJ4IjoyMzAuODAwMjczODk1MjYzNjcsInkiOjQ1Ny4yNjU2MjV9XQ=="/><path id="my-svg-L_V_P_0" marker-end="url(#my-svg_flowchart-v2-pointEnd)" d="m189.809 569.79-14.898 12.998c-14.898 12.999-44.694 38.996-59.517 57.578s-14.674 29.749-14.6 35.332l.075 5.584" class="edge-thickness-normal edge-pattern-solid edge-thickness-normal edge-pattern-solid flowchart-link" data-edge="true" data-et="edge" data-id="L_V_P_0" data-look="classic" data-points="W3sieCI6MTg5LjgwODU2MzY3MDQ4NjAyLCJ5Ijo1NjkuNzg5NTM5Nzc1MjIyNH0seyJ4IjoxMDAuNDIxODcxMTg1MzAyNzMsInkiOjY0Ny43ODEyNX0seyJ4IjoxMDAuOTIxODcxMTg1MzAyNzMsInkiOjY4NS4yODEyNTAwMDAwMDAyfV0="/><path id="my-svg-L_V_R_0" marker-end="url(#my-svg_flowchart-v2-pointEnd)" d="M230.8 610.781v6.167c0 6.167 0 18.5.075 30.25.074 11.75.223 22.917.298 28.5l.074 5.584" class="edge-thickness-normal edge-pattern-solid edge-thickness-normal edge-pattern-solid flowchart-link" data-edge="true" data-et="edge" data-id="L_V_R_0" data-look="classic" data-points="W3sieCI6MjMwLjgwMDI3Mzg5NTI2MzY3LCJ5Ijo2MTAuNzgxMjV9LHsieCI6MjMwLjgwMDI3Mzg5NTI2MzY3LCJ5Ijo2NDcuNzgxMjV9LHsieCI6MjMxLjMwMDI3Mzg5NTI2MzY3LCJ5Ijo2ODUuMjgxMjV9XQ=="/><path id="my-svg-L_V_L_0" marker-end="url(#my-svg_flowchart-v2-pointEnd)" d="m273.322 568.259 16.462 13.254c16.462 13.253 49.385 39.761 65.921 58.598s16.686 30.004 16.76 35.587l.074 5.584" class="edge-thickness-normal edge-pattern-solid edge-thickness-normal edge-pattern-solid flowchart-link" data-edge="true" data-et="edge" data-id="L_V_L_0" data-look="classic" data-points="W3sieCI6MjczLjMyMjQ4MDI5OTUzMjIsInkiOjU2OC4yNTkwNDM1OTU3MzE0fSx7IngiOjM3Mi4wOTI3MzkxMDUyMjQ2LCJ5Ijo2NDcuNzgxMjV9LHsieCI6MzcyLjU5MjczOTEwNTIyNDYsInkiOjY4NS4yODEyNX1d"/></g><g class="edgeLabels"><g class="edgeLabel"><foreignObject width="0" height="0" class="label" data-id="L_C_D_0"><div xmlns="http://www.w3.org/1999/xhtml" class="labelBkg" style="display:table-cell;white-space:nowrap;line-height:1.5;max-width:200px;text-align:center"><span class="edgeLabel"/></div></foreignObject></g><g class="edgeLabel"><foreignObject width="23.094" height="24" class="label" data-id="L_D_X_0" transform="translate(25.584 304.266)"><div xmlns="http://www.w3.org/1999/xhtml" class="labelBkg" style="display:table-cell;white-space:nowrap;line-height:1.5;max-width:200px;text-align:center"><span class="edgeLabel"><p>yes</p></span></div></foreignObject></g><g class="edgeLabel"><foreignObject width="17.328" height="24" class="label" data-id="L_D_F_0" transform="translate(222.136 304.266)"><div xmlns="http://www.w3.org/1999/xhtml" class="labelBkg" style="display:table-cell;white-space:nowrap;line-height:1.5;max-width:200px;text-align:center"><span class="edgeLabel"><p>no</p></span></div></foreignObject></g><g class="edgeLabel"><foreignObject width="0" height="0" class="label" data-id="L_F_V_0"><div xmlns="http://www.w3.org/1999/xhtml" class="labelBkg" style="display:table-cell;white-space:nowrap;line-height:1.5;max-width:200px;text-align:center"><span class="edgeLabel"/></div></foreignObject></g><g class="edgeLabel"><foreignObject width="38.516" height="24" class="label" data-id="L_V_P_0" transform="translate(111.728 609.114)"><div xmlns="http://www.w3.org/1999/xhtml" class="labelBkg" style="display:table-cell;white-space:nowrap;line-height:1.5;max-width:200px;text-align:center"><span class="edgeLabel"><p>clean</p></span></div></foreignObject></g><g class="edgeLabel"><foreignObject width="125.75" height="24" class="label" data-id="L_V_R_0" transform="translate(167.925 635.781)"><div xmlns="http://www.w3.org/1999/xhtml" class="labelBkg" style="display:table-cell;white-space:nowrap;line-height:1.5;max-width:200px;text-align:center"><span class="edgeLabel"><p>unsure / disagree</p></span></div></foreignObject></g><g class="edgeLabel"><foreignObject width="37.078" height="24" class="label" data-id="L_V_L_0" transform="translate(353.554 635.781)"><div xmlns="http://www.w3.org/1999/xhtml" class="labelBkg" style="display:table-cell;white-space:nowrap;line-height:1.5;max-width:200px;text-align:center"><span class="edgeLabel"><p>spam</p></span></div></foreignObject></g></g><g class="nodes"><g id="my-svg-flowchart-C-0" class="node default" data-look="classic"><g class="basic label-container outer-path"><path fill="#ececff" stroke-width="0" d="M89.817 8h88.297l1.25.04 1.243.12 1.234.2 1.22.278 1.197.355 1.174.432 1.143.506 1.108.578 1.069.648 1.025.715.977.78.926.84.87.898.81.952.747 1.002.682 1.047.614 1.09.542 1.126.469 1.158.394 1.187.317 1.209.239 1.227.16 1.24.08 1.247v1.25l-.08 1.247-.16 1.24-.239 1.227-.317 1.21-.394 1.186-.47 1.158c-.141.296-.284.592-.541 1.126l-.614 1.09-.682 1.047-.747 1.002-.81.952-.87.898-.926.84-.977.78-1.025.715-1.07.648-1.107.578-1.143.506-1.174.432-1.198.355-1.219.278-1.234.2-1.244.12-1.25.04H89.818l-1.25-.04-1.244-.12-1.234-.2-1.218-.278-1.199-.355-1.173-.432-1.143-.506-1.108-.578-1.069-.648-1.025-.715-.977-.78-.926-.84-.87-.898-.81-.952-.747-1.002-.682-1.047-.614-1.09-.542-1.126-.47-1.158c-.085-.26-.172-.52-.393-1.187l-.317-1.209-.239-1.227-.16-1.24-.08-1.247v-1.25l.08-1.247.16-1.24.239-1.227.317-1.21.394-1.186.469-1.158.542-1.126.614-1.09.682-1.047.747-1.002.81-.952.87-.898.926-.84.977-.78 1.025-.715 1.069-.648 1.108-.578 1.143-.506 1.173-.432 1.199-.355 1.218-.278 1.234-.2 1.245-.12L89.817 8"/><path fill="none" stroke="#9370db" stroke-dasharray="0 0" stroke-width="1.3" d="M89.817 8h88.297M89.817 8h88.297m0 0 1.25.04m-1.25-.04 1.25.04m0 0 1.243.12m-1.244-.12 1.244.12m0 0 1.234.2m-1.234-.2 1.234.2m0 0 1.22.278m-1.22-.278 1.22.278m0 0 1.197.355m-1.198-.355 1.198.355m0 0 1.174.432m-1.174-.432 1.174.432m0 0 1.143.506m-1.143-.506 1.143.506m0 0 1.108.578m-1.108-.578 1.108.578m0 0 1.069.648m-1.07-.648 1.07.648m0 0 1.025.715m-1.025-.715 1.025.715m0 0 .977.78m-.977-.78.977.78m0 0 .926.84m-.926-.84.926.84m0 0 .87.898m-.87-.898.87.898m0 0 .81.952m-.81-.952.81.952m0 0 .747 1.002m-.747-1.002.747 1.002m0 0 .682 1.047m-.682-1.047.682 1.047m0 0 .614 1.09m-.614-1.09.614 1.09m0 0 .542 1.126m-.542-1.126.542 1.126m0 0 .469 1.158m-.47-1.158.47 1.158m0 0 .394 1.187m-.394-1.187.394 1.187m0 0 .317 1.209m-.317-1.21.317 1.21m0 0 .239 1.227m-.239-1.227.239 1.227m0 0 .16 1.24m-.16-1.24.16 1.24m0 0 .08 1.247m-.08-1.247.08 1.247m0 0v1.25m0-1.25v1.25m0 0-.08 1.247m.08-1.247-.08 1.247m0 0-.16 1.24m.16-1.24-.16 1.24m0 0-.239 1.227m.239-1.227-.239 1.227m0 0-.317 1.21m.317-1.21-.317 1.21m0 0-.394 1.186m.394-1.187-.394 1.187m0 0-.47 1.158m.47-1.158-.47 1.158m0 0-.541 1.126m.542-1.126-.542 1.126m0 0-.614 1.09m.614-1.09-.614 1.09m0 0-.682 1.047m.682-1.047-.682 1.047m0 0-.747 1.002m.747-1.002-.747 1.002m0 0-.81.952m.81-.952-.81.952m0 0-.87.898m.87-.898-.87.898m0 0-.926.84m.926-.84-.926.84m0 0-.977.78m.977-.78-.977.78m0 0-1.025.715m1.025-.715c-.26.18-.52.362-1.025.715m0 0-1.07.648m1.07-.648-1.07.648m0 0-1.107.578m1.108-.578-1.108.578m0 0-1.143.506m1.143-.506-1.143.506m0 0-1.174.432m1.174-.432-1.174.432m0 0-1.198.355m1.198-.355-1.198.355m0 0-1.219.278m1.22-.278-1.22.278m0 0-1.234.2m1.234-.2-1.234.2m0 0-1.244.12m1.244-.12-1.244.12m0 0-1.25.04m1.25-.04-1.25.04m0 0H89.818m88.297 0H89.817m0 0-1.25-.04m1.25.04-1.25-.04m0 0-1.244-.12m1.245.12-1.245-.12m0 0-1.234-.2m1.234.2-1.234-.2m0 0-1.218-.278m1.218.278-1.218-.278m0 0-1.199-.355m1.199.355-1.199-.355m0 0-1.173-.432m1.173.432-1.173-.432m0 0-1.143-.506m1.143.506-1.143-.506m0 0-1.108-.578m1.108.578-1.108-.578m0 0-1.069-.648m1.069.648-1.069-.648m0 0-1.025-.715m1.025.715q-.514-.36-1.025-.715m0 0-.977-.78m.977.78-.977-.78m0 0-.926-.84m.926.84-.926-.84m0 0-.87-.898m.87.898-.87-.898m0 0-.81-.952m.81.952-.81-.952m0 0-.747-1.002m.747 1.002-.747-1.002m0 0-.682-1.047m.682 1.047-.682-1.047m0 0-.614-1.09m.614 1.09-.614-1.09m0 0-.542-1.126m.542 1.126-.542-1.126m0 0-.47-1.158m.47 1.158-.47-1.158m0 0-.393-1.187m.394 1.187-.394-1.187m0 0-.317-1.209m.317 1.21-.317-1.21m0 0-.239-1.227m.239 1.227-.239-1.227m0 0-.16-1.24m.16 1.24-.16-1.24m0 0-.08-1.247m.08 1.247-.08-1.247m0 0v-1.25m0 1.25v-1.25m0 0 .08-1.247m-.08 1.247.08-1.247m0 0 .16-1.24m-.16 1.24.16-1.24m0 0 .239-1.227m-.239 1.227.239-1.227m0 0 .317-1.21m-.317 1.21.317-1.21m0 0 .394-1.186m-.394 1.187.394-1.187m0 0 .469-1.158m-.47 1.158c.11-.27.22-.539.47-1.158m0 0 .542-1.126m-.542 1.126.542-1.126m0 0 .614-1.09m-.614 1.09.614-1.09m0 0 .682-1.047m-.682 1.047.682-1.047m0 0 .747-1.002m-.747 1.002.747-1.002m0 0 .81-.952m-.81.952.81-.952m0 0 .87-.898m-.87.898.87-.898m0 0 .926-.84m-.926.84.926-.84m0 0 .977-.78m-.977.78.977-.78m0 0 1.025-.715m-1.025.715 1.025-.715m0 0 1.069-.648m-1.069.648 1.069-.648m0 0 1.108-.578m-1.108.578 1.108-.578m0 0 1.143-.506m-1.143.506 1.143-.506m0 0 1.173-.432m-1.173.432 1.173-.432m0 0 1.199-.355m-1.199.355 1.199-.355m0 0 1.218-.278m-1.218.278 1.218-.278m0 0 1.234-.2m-1.234.2 1.234-.2m0 0 1.245-.12m-1.245.12 1.245-.12m0 0L89.817 8m-1.25.04 1.25-.04m0 0"/></g><g class="label" transform="translate(82.692 15.5)"><rect/><foreignObject width="102.547" height="24"><div xmlns="http://www.w3.org/1999/xhtml" style="display:table-cell;white-space:nowrap;line-height:1.5;max-width:200px;text-align:center"><span class="nodeLabel"><p>New comment</p></span></div></foreignObject></g></g><g id="my-svg-flowchart-D-1" class="node default" data-look="classic"><path d="m134.465 279.266 91.133-91.133L134.465 97l-91.132 91.133z" class="label-container"/><g class="label" transform="translate(69.833 176.133)"><rect/><foreignObject width="128.266" height="24"><div xmlns="http://www.w3.org/1999/xhtml" style="display:table-cell;white-space:nowrap;line-height:1.5;max-width:200px;text-align:center"><span class="nodeLabel"><p>Looks automated?</p></span></div></foreignObject></g></g><g id="my-svg-flowchart-X-3" class="node default" data-look="classic"><g class="basic label-container outer-path"><path fill="#ececff" stroke-width="0" d="M27.49 360.766h19.281l1.25.04 1.244.12 1.234.2 1.218.277 1.199.356 1.173.432 1.143.506 1.108.578 1.07.648 1.024.715.978.78.925.84.87.898.81.952.748 1.001.682 1.048.613 1.09.542 1.125.47 1.159.393 1.186.317 1.21.24 1.226.16 1.24c.016.258.032.515.08 1.248v1.25c-.032.479-.062.958-.08 1.247l-.16 1.24-.24 1.227-.317 1.209-.394 1.186-.469 1.159-.542 1.126-.613 1.09-.682 1.047-.748 1.002-.81.951-.87.898-.925.84-.978.78-1.025.715-1.069.648-1.108.579-1.143.506-1.173.431-1.199.356-1.218.278-1.234.2-1.244.12-1.25.04H27.49l-1.25-.04-1.244-.12-1.234-.2-1.218-.278-1.199-.356-1.173-.431-1.143-.506-1.108-.579-1.069-.648-1.025-.715-.977-.78c-.255-.23-.51-.461-.926-.84l-.87-.898-.81-.951-.747-1.002-.682-1.048-.614-1.089-.542-1.126-.47-1.159-.393-1.186-.317-1.21-.24-1.226-.159-1.24-.08-1.247v-1.25l.08-1.248.16-1.24.239-1.227.317-1.209.394-1.186.469-1.159.542-1.126.614-1.089.682-1.048.747-1.001.81-.952.87-.898.926-.84.977-.78 1.025-.715 1.069-.648 1.108-.578 1.143-.506 1.173-.432 1.199-.356 1.218-.278 1.234-.2 1.245-.12 1.249-.04"/><path fill="none" stroke="#9370db" stroke-dasharray="0 0" stroke-width="1.3" d="M27.49 360.766h19.281m-19.281 0h19.281m0 0 1.25.04m-1.25-.04 1.25.04m0 0 1.244.12m-1.244-.12 1.244.12m0 0c.444.072.89.143 1.234.2m-1.234-.2 1.234.2m0 0 1.218.277m-1.218-.278 1.218.278m0 0 1.199.356m-1.199-.356 1.199.356m0 0 1.173.432m-1.173-.432 1.173.432m0 0 1.143.506m-1.143-.506 1.143.506m0 0 1.108.578m-1.108-.578 1.108.578m0 0 1.07.648m-1.07-.648 1.07.648m0 0 1.024.715m-1.025-.715 1.025.715m0 0 .978.78m-.978-.78.978.78m0 0 .925.84m-.925-.84.925.84m0 0 .87.898m-.87-.898.87.898m0 0 .81.952m-.81-.952.81.952m0 0 .748 1.001m-.748-1.001.748 1.001m0 0 .682 1.048m-.682-1.048.682 1.048m0 0 .613 1.09m-.613-1.09.613 1.09m0 0 .542 1.125m-.542-1.126.542 1.126m0 0 .47 1.159m-.47-1.159.47 1.159m0 0c.1.305.202.61.393 1.186m-.394-1.186.394 1.186m0 0 .317 1.21m-.317-1.21.317 1.21m0 0 .24 1.226m-.24-1.227.24 1.227m0 0 .16 1.24m-.16-1.24c.06.47.12.94.16 1.24m0 0 .08 1.248m-.08-1.248.08 1.248m0 0v1.25m0-1.25v1.25m0 0c-.024.355-.046.711-.08 1.247m.08-1.247c-.032.481-.063.963-.08 1.247m0 0-.16 1.24m.16-1.24-.16 1.24m0 0-.24 1.227m.24-1.227-.24 1.227m0 0-.317 1.209m.317-1.21-.317 1.21m0 0L65.071 387m.394-1.186L65.071 387m0 0-.469 1.159m.47-1.159-.47 1.159m0 0-.542 1.126m.542-1.126-.542 1.126m0 0-.613 1.09m.613-1.09c-.18.319-.36.638-.613 1.09m0 0c-.138.211-.277.423-.682 1.047m.682-1.048-.682 1.048m0 0c-.247.33-.494.66-.748 1.002m.748-1.002-.748 1.002m0 0-.81.951m.81-.951-.81.951m0 0-.87.898m.87-.898-.87.898m0 0-.925.84m.925-.84-.925.84m0 0-.978.78m.978-.78c-.26.209-.522.416-.978.78m0 0-1.025.715m1.025-.715-1.025.715m0 0-1.069.648m1.07-.648-1.07.648m0 0-1.108.579m1.108-.579-1.108.579m0 0-1.143.506m1.143-.506-1.143.506m0 0-1.173.431m1.173-.431-1.173.431m0 0-1.199.356m1.199-.356-1.199.356m0 0-1.218.278m1.218-.278-1.218.278m0 0-1.234.2m1.234-.2-1.234.2m0 0-1.244.12m1.244-.12-1.244.12m0 0-1.25.04m1.25-.04-1.25.04m0 0H27.49m19.281 0H27.49m0 0-1.25-.04m1.25.04-1.25-.04m0 0-1.244-.12m1.245.12-1.245-.12m0 0-1.234-.2m1.234.2-1.234-.2m0 0-1.218-.278m1.218.278-1.218-.278m0 0-1.199-.356m1.199.356-1.199-.356m0 0-1.173-.431m1.173.431-1.173-.431m0 0-1.143-.506m1.143.506-1.143-.506m0 0-1.108-.579m1.108.579-1.108-.579m0 0c-.29-.175-.58-.35-1.069-.648m1.069.648-1.069-.648m0 0-1.025-.715m1.025.715-1.025-.715m0 0c-.24-.19-.479-.381-.977-.78m.977.78-.977-.78m0 0-.926-.84m.926.84c-.222-.2-.443-.401-.926-.84m0 0-.87-.898m.87.898-.87-.898m0 0-.81-.951m.81.951-.81-.951m0 0-.747-1.002m.747 1.002-.747-1.002m0 0-.682-1.048m.682 1.048-.682-1.048m0 0-.614-1.089m.614 1.09-.614-1.09m0 0-.542-1.126m.542 1.126-.542-1.126m0 0L9.189 387m.47 1.159L9.189 387m0 0c-.08-.245-.162-.49-.393-1.186M9.19 387l-.394-1.186m0 0-.317-1.21m.317 1.21-.317-1.21m0 0-.24-1.226m.24 1.227-.24-1.227m0 0-.159-1.24m.16 1.24-.16-1.24m0 0L8 380.891m.08 1.247L8 380.891m0 0v-1.25m0 1.25v-1.25m0 0 .08-1.248M8 379.641l.08-1.248m0 0 .16-1.24m-.16 1.24.16-1.24m0 0 .239-1.227m-.24 1.227c.073-.368.144-.737.24-1.227m0 0 .317-1.209m-.317 1.21.317-1.21m0 0 .394-1.186m-.394 1.186.394-1.186m0 0 .469-1.159m-.47 1.159.47-1.159m0 0 .542-1.126m-.542 1.126.542-1.126m0 0 .614-1.089m-.614 1.09.614-1.09m0 0 .682-1.048m-.682 1.048.682-1.048m0 0 .747-1.001m-.747 1.001.747-1.001m0 0 .81-.952m-.81.952.81-.952m0 0 .87-.898m-.87.898.87-.898m0 0 .926-.84m-.926.84.926-.84m0 0 .977-.78m-.977.78.977-.78m0 0 1.025-.715m-1.025.715 1.025-.715m0 0 1.069-.648m-1.069.648 1.069-.648m0 0 1.108-.578m-1.108.578 1.108-.578m0 0 1.143-.506m-1.143.506 1.143-.506m0 0 1.173-.432m-1.173.432 1.173-.432m0 0 1.199-.356m-1.199.356 1.199-.356m0 0 1.218-.278m-1.218.278 1.218-.278m0 0 1.234-.2m-1.234.2 1.234-.2m0 0 1.245-.12m-1.245.12 1.245-.12m0 0c.348-.01.697-.022 1.249-.04m-1.25.04 1.25-.04m0 0"/></g><g class="label" transform="translate(20.365 368.266)"><rect/><foreignObject width="33.531" height="24"><div xmlns="http://www.w3.org/1999/xhtml" style="display:table-cell;white-space:nowrap;line-height:1.5;max-width:200px;text-align:center"><span class="nodeLabel"><p>Drop</p></span></div></foreignObject></g></g><g id="my-svg-flowchart-F-5" class="node default" data-look="classic"><path d="M116.261 353.266H345.34v54H116.261z" class="basic label-container"/><g class="label" transform="translate(146.261 368.266)"><rect/><foreignObject width="169.078" height="24"><div xmlns="http://www.w3.org/1999/xhtml" style="display:table-cell;white-space:nowrap;line-height:1.5;max-width:200px;text-align:center"><span class="nodeLabel"><p>Akismet + Claude Haiku</p></span></div></foreignObject></g></g><g id="my-svg-flowchart-V-6" class="node default" data-look="classic"><path d="m231.3 610.781 76.758-76.758-76.758-76.757-76.758 76.757z" class="label-container"/><g class="label" transform="translate(181.042 522.023)"><rect/><foreignObject width="99.516" height="24"><div xmlns="http://www.w3.org/1999/xhtml" style="display:table-cell;white-space:nowrap;line-height:1.5;max-width:200px;text-align:center"><span class="nodeLabel"><p>Spam verdict?</p></span></div></foreignObject></g></g><g id="my-svg-flowchart-P-8" class="node default" data-look="classic"><g class="basic label-container outer-path"><path fill="#ececff" stroke-width="0" d="M82.008 684.781h36.828l1.25.04 1.244.12 1.234.2 1.218.278 1.199.356 1.173.431c.385.171.77.342 1.143.506l1.108.579 1.069.648 1.025.715c.315.25.63.502.977.78.228.205.455.412.926.84l.87.897.81.952.747 1.002.682 1.048.614 1.089.542 1.126.47 1.159.393 1.186.317 1.21.239 1.226.16 1.24.08 1.247v1.25l-.08 1.248-.16 1.24-.239 1.226-.317 1.21-.394 1.186-.469 1.159-.542 1.126-.614 1.089-.682 1.048-.747 1.001-.81.952-.87.898-.926.84-.977.78-1.025.715-1.07.648-1.107.578-1.143.506-1.173.432-1.199.355-1.218.279-1.234.2c-.281.026-.562.053-1.245.12l-1.25.04H82.009l-1.25-.04-1.244-.12-1.234-.2-1.218-.279-1.199-.355-1.173-.432-1.143-.506-1.108-.578-1.07-.648-1.024-.715-.978-.78-.925-.84-.87-.898-.81-.952-.748-1.001-.681-1.048-.614-1.09-.542-1.125-.47-1.16-.393-1.185-.317-1.21-.24-1.227c-.035-.276-.07-.552-.16-1.24l-.08-1.247v-1.25c.025-.376.05-.753.08-1.247.064-.491.128-.983.16-1.24.09-.454.178-.909.24-1.227l.317-1.209.394-1.186.469-1.159.542-1.126.614-1.09.681-1.047.748-1.002.81-.952.87-.898.925-.84.978-.78c.4-.28.802-.559 1.025-.714l1.069-.648 1.108-.579 1.143-.506 1.173-.431 1.199-.356 1.218-.278 1.234-.2 1.244-.12 1.25-.04"/><path fill="none" stroke="#9370db" stroke-dasharray="0 0" stroke-width="1.3" d="M82.008 684.781h36.828m-36.828 0h36.828m0 0 1.25.04m-1.25-.04 1.25.04m0 0 1.244.12m-1.245-.12c.404.04.808.078 1.245.12m0 0 1.234.2m-1.234-.2 1.234.2m0 0 1.218.278m-1.218-.278 1.218.278m0 0 1.199.356m-1.199-.356 1.199.356m0 0 1.173.431m-1.173-.431 1.173.431m0 0 1.143.506m-1.143-.506 1.143.506m0 0 1.108.579m-1.108-.579 1.108.579m0 0 1.069.648m-1.07-.648 1.07.648m0 0 1.025.715m-1.025-.715c.35.243.7.487 1.025.715m0 0 .977.78m-.977-.78.977.78m0 0 .926.84m-.926-.84.926.84m0 0 .87.897m-.87-.898c.302.313.604.625.87.898m0 0 .81.952m-.81-.952.81.952m0 0 .747 1.002m-.747-1.002.747 1.002m0 0 .682 1.048m-.682-1.048.682 1.048m0 0 .614 1.089m-.614-1.09.614 1.09m0 0 .542 1.126m-.542-1.126.542 1.126m0 0 .47 1.159m-.47-1.159.47 1.159m0 0c.11.336.222.672.393 1.186m-.394-1.186.394 1.186m0 0 .317 1.21m-.317-1.21.317 1.21m0 0 .239 1.226m-.239-1.227.239 1.227m0 0 .16 1.24m-.16-1.24.16 1.24m0 0 .08 1.247m-.08-1.247.08 1.247m0 0v1.25m0-1.25v1.25m0 0-.08 1.248m.08-1.248-.08 1.248m0 0-.16 1.24m.16-1.24-.16 1.24m0 0-.239 1.226m.239-1.227-.239 1.227m0 0-.317 1.21m.317-1.21-.317 1.21m0 0-.394 1.186m.394-1.186-.394 1.186m0 0-.469 1.159m.47-1.16-.47 1.16m0 0-.542 1.126m.542-1.126-.542 1.126m0 0-.614 1.089m.614-1.09-.614 1.09m0 0-.682 1.048m.682-1.048-.682 1.048m0 0-.747 1.001m.747-1.001-.747 1.001m0 0-.81.952m.81-.952-.81.952m0 0-.87.898m.87-.898c-.263.27-.525.541-.87.898m0 0-.926.84m.926-.84-.926.84m0 0-.977.78m.977-.78-.977.78m0 0-1.025.715m1.025-.715-1.025.715m0 0-1.07.648m1.07-.648-1.07.648m0 0-1.107.578m1.108-.578-1.108.578m0 0-1.143.506m1.143-.506-1.143.506m0 0-1.173.432m1.173-.432-1.173.432m0 0-1.199.355m1.199-.355-1.199.355m0 0-1.218.279m1.218-.279-1.218.279m0 0c-.406.065-.811.13-1.234.2m1.234-.2-1.234.2m0 0c-.37.035-.74.07-1.245.12m1.245-.12-1.245.12m0 0c-.38.011-.762.024-1.25.04m1.25-.04c-.411.012-.823.026-1.25.04m0 0H82.009m36.828 0H82.008m0 0-1.25-.04m1.25.04-1.25-.04m0 0-1.244-.12m1.244.12c-.335-.033-.671-.066-1.244-.12m0 0-1.234-.2m1.234.2-1.234-.2m0 0-1.218-.279m1.218.279-1.218-.279m0 0-1.199-.355m1.199.355-1.199-.355m0 0-1.173-.432m1.173.432-1.173-.432m0 0-1.143-.506m1.143.506-1.143-.506m0 0-1.108-.578m1.108.578-1.108-.578m0 0-1.07-.648m1.07.648-1.07-.648m0 0-1.024-.715m1.025.715-1.025-.715m0 0-.978-.78m.978.78-.978-.78m0 0-.925-.84m.925.84-.925-.84m0 0-.87-.898m.87.898-.87-.898m0 0-.81-.952m.81.952-.81-.952m0 0-.748-1.001m.748 1.001-.748-1.001m0 0-.681-1.048m.681 1.048-.681-1.048m0 0-.614-1.09m.614 1.09c-.2-.353-.398-.706-.614-1.09m0 0-.542-1.125m.542 1.126-.542-1.126m0 0-.47-1.16m.47 1.16-.47-1.16m0 0-.393-1.185m.394 1.186-.394-1.186m0 0-.317-1.21m.317 1.21-.317-1.21m0 0-.24-1.227m.24 1.227-.24-1.227m0 0-.16-1.24m.16 1.24c-.061-.48-.123-.962-.16-1.24m0 0c-.03-.477-.06-.954-.08-1.247m.08 1.248c-.03-.476-.06-.952-.08-1.248m0 0v-1.25m0 1.25v-1.25m0 0 .08-1.247m-.08 1.247c.03-.455.06-.91.08-1.247m0 0 .16-1.24m-.16 1.24c.055-.42.11-.84.16-1.24m0 0 .24-1.227m-.24 1.227.24-1.227m0 0 .317-1.209m-.317 1.21c.08-.308.16-.616.317-1.21m0 0 .394-1.186m-.394 1.186.394-1.186m0 0 .469-1.159m-.47 1.159.47-1.159m0 0 .542-1.126m-.542 1.126.542-1.126m0 0 .614-1.09m-.614 1.09.614-1.09m0 0 .681-1.047m-.681 1.048.681-1.048m0 0 .748-1.002m-.748 1.002.748-1.002m0 0 .81-.952m-.81.952.81-.952m0 0 .87-.898m-.87.898.87-.898m0 0 .925-.84m-.925.84.925-.84m0 0 .978-.78m-.978.78.978-.78m0 0c.365-.254.73-.51 1.025-.714m-1.025.715 1.025-.715m0 0 1.069-.648m-1.07.648 1.07-.648m0 0 1.108-.579m-1.108.579 1.108-.579m0 0c.364-.16.727-.321 1.143-.506m-1.143.506 1.143-.506m0 0 1.173-.431m-1.173.431 1.173-.431m0 0 1.199-.356m-1.199.356 1.199-.356m0 0 1.218-.278m-1.218.278 1.218-.278m0 0 1.234-.2m-1.234.2 1.234-.2m0 0 1.244-.12m-1.244.12 1.244-.12m0 0 1.25-.04m-1.25.04 1.25-.04m0 0"/></g><g class="label" transform="translate(74.883 692.281)"><rect/><foreignObject width="51.078" height="24"><div xmlns="http://www.w3.org/1999/xhtml" style="display:table-cell;white-space:nowrap;line-height:1.5;max-width:200px;text-align:center"><span class="nodeLabel"><p>Publish</p></span></div></foreignObject></g></g><g id="my-svg-flowchart-R-10" class="node default" data-look="classic"><g class="basic label-container outer-path"><path fill="#ececff" stroke-width="0" d="M207.816 684.781h45.969l1.249.04c.253.025.506.05 1.244.12l1.234.2 1.219.278 1.198.356 1.173.431 1.143.506 1.109.579 1.069.648 1.025.715.977.78c.263.238.527.477.925.84l.87.897.81.952.748 1.002.682 1.048.613 1.089.543 1.126.469 1.159.394 1.186.317 1.21.239 1.226.16 1.24c.03.489.062.977.08 1.247v1.25c-.02.296-.038.591-.08 1.248l-.16 1.24-.24 1.226-.316 1.21-.394 1.186-.47 1.159-.542 1.126-.613 1.089-.682 1.048-.748 1.001-.81.952-.87.898-.925.84-.977.78-1.025.715-1.07.648-1.108.578-1.143.506-1.173.432-1.198.355-1.219.279-1.234.2c-.477.045-.953.091-1.244.12-.362.01-.725.022-1.25.04h-45.968c-.431-.015-.862-.028-1.25-.04-.36-.036-.719-.07-1.244-.12l-1.234-.2-1.218-.279-1.199-.355-1.173-.432-1.143-.506-1.108-.578-1.069-.648-1.025-.715-.978-.78-.925-.84-.87-.898-.81-.952-.747-1.001-.682-1.048-.614-1.09-.542-1.125-.47-1.16-.393-1.185-.317-1.21-.24-1.227-.159-1.24-.08-1.247v-1.25l.08-1.247.16-1.24.239-1.227.317-1.209.394-1.186.469-1.159.542-1.126.614-1.09.682-1.047.747-1.002c.22-.257.439-.515.81-.952.27-.277.538-.554.87-.898l.925-.84.978-.78 1.025-.714 1.069-.648 1.108-.579 1.143-.506 1.173-.431 1.199-.356 1.218-.278 1.234-.2 1.245-.12 1.249-.04"/><path fill="none" stroke="#9370db" stroke-dasharray="0 0" stroke-width="1.3" d="M207.816 684.781h45.969m-45.97 0h45.97m0 0 1.249.04m-1.25-.04 1.25.04m0 0 1.244.12m-1.244-.12 1.244.12m0 0 1.234.2m-1.234-.2 1.234.2m0 0 1.219.278m-1.219-.278 1.219.278m0 0 1.198.356m-1.198-.356 1.198.356m0 0 1.173.431m-1.173-.431 1.173.431m0 0 1.143.506m-1.143-.506 1.143.506m0 0 1.109.579m-1.109-.579 1.109.579m0 0 1.069.648m-1.07-.648 1.07.648m0 0 1.025.715m-1.025-.715 1.025.715m0 0c.31.246.619.493.977.78m-.977-.78.977.78m0 0 .925.84m-.925-.84.925.84m0 0 .87.897m-.87-.898.87.898m0 0 .81.952m-.81-.952.81.952m0 0 .748 1.002m-.748-1.002.748 1.002m0 0 .682 1.048m-.682-1.048.682 1.048m0 0 .613 1.089m-.613-1.09.613 1.09m0 0 .543 1.126m-.543-1.126.543 1.126m0 0 .469 1.159m-.47-1.159.47 1.159m0 0 .394 1.186m-.394-1.186.394 1.186m0 0 .317 1.21m-.317-1.21.317 1.21m0 0 .239 1.226m-.24-1.227.24 1.227m0 0 .16 1.24m-.16-1.24.16 1.24m0 0 .08 1.247m-.08-1.247c.03.487.062.974.08 1.247m0 0v1.25m0-1.25v1.25m0 0-.08 1.248m.08-1.248-.08 1.248m0 0-.16 1.24m.16-1.24-.16 1.24m0 0-.24 1.226m.24-1.227c-.086.443-.172.885-.24 1.227m0 0-.316 1.21m.317-1.21-.317 1.21m0 0-.394 1.186m.394-1.186-.394 1.186m0 0-.47 1.159m.47-1.16-.47 1.16m0 0-.542 1.126m.543-1.126-.543 1.126m0 0-.613 1.089m.613-1.09-.613 1.09m0 0-.682 1.048m.682-1.048-.682 1.048m0 0-.748 1.001m.748-1.001-.748 1.001m0 0-.81.952m.81-.952-.81.952m0 0-.87.898m.87-.898-.87.898m0 0-.925.84m.925-.84-.925.84m0 0-.977.78m.977-.78-.977.78m0 0-1.025.715m1.025-.715-1.025.715m0 0-1.07.648m1.07-.648-1.07.648m0 0-1.108.578m1.109-.578-1.109.578m0 0-1.143.506m1.143-.506-1.143.506m0 0-1.173.432m1.173-.432-1.173.432m0 0-1.198.355m1.198-.355-1.198.355m0 0-1.219.279m1.219-.279c-.483.11-.966.22-1.219.279m0 0-1.234.2m1.234-.2-1.234.2m0 0c-.386.036-.773.074-1.244.12m1.244-.12c-.468.044-.936.09-1.244.12m0 0c-.284.008-.569.017-1.25.04m1.25-.04c-.444.013-.888.028-1.25.04m0 0h-45.968m45.969 0h-45.97m0 0-1.248-.04m1.249.04c-.42-.014-.84-.028-1.25-.04m0 0c-.463-.046-.927-.09-1.244-.12m1.245.12-1.245-.12m0 0c-.468-.077-.936-.152-1.234-.2m1.234.2-1.234-.2m0 0-1.218-.279m1.218.279-1.218-.279m0 0-1.199-.355m1.199.355-1.199-.355m0 0-1.173-.432m1.173.432-1.173-.432m0 0-1.143-.506m1.143.506-1.143-.506m0 0-1.108-.578m1.108.578-1.108-.578m0 0-1.069-.648m1.069.648-1.069-.648m0 0-1.025-.715m1.025.715-1.025-.715m0 0-.978-.78m.978.78-.978-.78m0 0-.925-.84m.925.84-.925-.84m0 0-.87-.898m.87.898-.87-.898m0 0-.81-.952m.81.952-.81-.952m0 0-.747-1.001m.747 1.001-.747-1.001m0 0-.682-1.048m.682 1.048-.682-1.048m0 0-.614-1.09m.614 1.09-.614-1.09m0 0-.542-1.125m.542 1.126-.542-1.126m0 0-.47-1.16m.47 1.16-.47-1.16m0 0-.393-1.185m.394 1.186-.394-1.186m0 0-.317-1.21m.317 1.21-.317-1.21m0 0-.24-1.227m.24 1.227-.24-1.227m0 0-.159-1.24m.16 1.24-.16-1.24m0 0-.08-1.247m.08 1.248-.08-1.248m0 0v-1.25m0 1.25v-1.25m0 0 .08-1.247m-.08 1.247.08-1.247m0 0 .16-1.24m-.16 1.24.16-1.24m0 0 .239-1.227m-.24 1.227.24-1.227m0 0 .317-1.209m-.317 1.21.317-1.21m0 0 .394-1.186m-.394 1.186.394-1.186m0 0 .469-1.159m-.47 1.159.47-1.159m0 0 .542-1.126m-.542 1.126.542-1.126m0 0 .614-1.09m-.614 1.09.614-1.09m0 0 .682-1.047m-.682 1.048.682-1.048m0 0 .747-1.002m-.747 1.002.747-1.002m0 0 .81-.952m-.81.952.81-.952m0 0 .87-.898m-.87.898.87-.898m0 0 .925-.84m-.925.84.925-.84m0 0 .978-.78m-.978.78.978-.78m0 0 1.025-.714m-1.025.715 1.025-.715m0 0 1.069-.648m-1.069.648 1.069-.648m0 0 1.108-.579m-1.108.579 1.108-.579m0 0 1.143-.506m-1.143.506 1.143-.506m0 0 1.173-.431m-1.173.431 1.173-.431m0 0 1.199-.356m-1.199.356 1.199-.356m0 0 1.218-.278m-1.218.278 1.218-.278m0 0 1.234-.2m-1.234.2 1.234-.2m0 0 1.245-.12m-1.245.12 1.245-.12m0 0 1.249-.04m-1.25.04 1.25-.04m0 0"/></g><g class="label" transform="translate(200.69 692.281)"><rect/><foreignObject width="60.219" height="24"><div xmlns="http://www.w3.org/1999/xhtml" style="display:table-cell;white-space:nowrap;line-height:1.5;max-width:200px;text-align:center"><span class="nodeLabel"><p>Open PR</p></span></div></foreignObject></g></g><g id="my-svg-flowchart-L-12" class="node default" data-look="classic"><g class="basic label-container outer-path"><path fill="#ececff" stroke-width="0" d="M342.765 684.781h58.656l1.25.04 1.243.12 1.234.2 1.22.278 1.197.356 1.174.431 1.143.506 1.108.579c.248.15.497.3 1.069.648l1.025.715c.29.23.578.461.977.78.307.277.613.556.926.84l.87.897.81.952.747 1.002.682 1.048.614 1.089.542 1.126.469 1.159.394 1.186.317 1.21.239 1.226.16 1.24.08 1.247v1.25l-.08 1.248-.16 1.24-.239 1.226-.317 1.21-.394 1.186-.47 1.159-.541 1.126-.614 1.089-.682 1.048-.747 1.001-.81.952-.87.898-.926.84-.977.78-1.025.715-1.07.648-1.107.578-1.143.506-1.174.432-1.198.355-1.219.279-1.234.2c-.493.047-.987.094-1.244.12l-1.25.04h-58.655c-.336-.012-.672-.022-1.25-.04-.43-.042-.86-.084-1.244-.12l-1.234-.2-1.219-.279-1.198-.355-1.173-.432-1.143-.506-1.108-.578-1.07-.648-1.025-.715-.977-.78-.925-.84-.87-.898-.81-.952-.748-1.001-.682-1.048-.613-1.09-.542-1.125-.47-1.16-.393-1.185-.317-1.21-.24-1.227-.16-1.24-.08-1.247v-1.25c.03-.459.06-.918.08-1.247.055-.422.11-.843.16-1.24l.24-1.227.317-1.209.393-1.186.47-1.159.542-1.126c.224-.399.45-.798.613-1.09l.682-1.047.748-1.002.81-.952.87-.898.925-.84.977-.78 1.026-.714 1.069-.648 1.108-.579 1.143-.506 1.173-.431 1.198-.356 1.219-.278 1.234-.2c.473-.045.945-.09 1.244-.12l1.25-.04"/><path fill="none" stroke="#9370db" stroke-dasharray="0 0" stroke-width="1.3" d="M342.765 684.781h58.656m-58.656 0h58.656m0 0 1.25.04m-1.25-.04 1.25.04m0 0 1.243.12m-1.244-.12 1.244.12m0 0 1.234.2m-1.234-.2 1.234.2m0 0 1.22.278m-1.22-.278 1.22.278m0 0 1.197.356m-1.198-.356c.338.1.677.2 1.198.356m0 0 1.174.431m-1.174-.431 1.174.431m0 0 1.143.506m-1.143-.506 1.143.506m0 0 1.108.579m-1.108-.579 1.108.579m0 0 1.069.648m-1.07-.648c.344.207.686.415 1.07.648m0 0c.26.18.52.362 1.025.715m-1.025-.715 1.025.715m0 0 .977.78m-.977-.78c.207.165.415.33.977.78m0 0c.36.325.719.652.926.84m-.926-.84.926.84m0 0 .87.897m-.87-.898.87.898m0 0 .81.952m-.81-.952c.303.358.608.715.81.952m0 0 .747 1.002m-.747-1.002.747 1.002m0 0 .682 1.048m-.682-1.048.682 1.048m0 0 .614 1.089m-.614-1.09.614 1.09m0 0 .542 1.126m-.542-1.126.542 1.126m0 0 .469 1.159m-.47-1.159.47 1.159m0 0 .394 1.186m-.394-1.186.394 1.186m0 0 .317 1.21m-.317-1.21.317 1.21m0 0 .239 1.226m-.239-1.227.239 1.227m0 0 .16 1.24m-.16-1.24.16 1.24m0 0 .08 1.247m-.08-1.247.08 1.247m0 0v1.25m0-1.25v1.25m0 0-.08 1.248m.08-1.248-.08 1.248m0 0-.16 1.24m.16-1.24-.16 1.24m0 0-.239 1.226m.239-1.227-.239 1.227m0 0-.317 1.21m.317-1.21-.317 1.21m0 0-.394 1.186m.394-1.186c-.13.388-.258.777-.394 1.186m0 0-.47 1.159m.47-1.16-.47 1.16m0 0-.541 1.126m.542-1.126-.542 1.126m0 0-.614 1.089m.614-1.09-.614 1.09m0 0-.682 1.048m.682-1.048-.682 1.048m0 0-.747 1.001m.747-1.001-.747 1.001m0 0-.81.952m.81-.952-.81.952m0 0-.87.898m.87-.898-.87.898m0 0-.926.84m.926-.84-.926.84m0 0-.977.78m.977-.78-.977.78m0 0-1.025.715m1.025-.715-1.025.715m0 0-1.07.648m1.07-.648-1.07.648m0 0-1.107.578m1.108-.578-1.108.578m0 0-1.143.506m1.143-.506-1.143.506m0 0-1.174.432m1.174-.432-1.174.432m0 0-1.198.355m1.198-.355-1.198.355m0 0-1.219.279m1.22-.279-1.22.279m0 0-1.234.2m1.234-.2c-.343.055-.687.11-1.234.2m0 0c-.395.037-.79.075-1.244.12m1.244-.12-1.244.12m0 0-1.25.04m1.25-.04-1.25.04m0 0h-58.655m58.656 0h-58.656m0 0-1.25-.04m1.25.04-1.25-.04m0 0c-.355-.035-.71-.07-1.244-.12m1.244.12c-.339-.034-.678-.066-1.244-.12m0 0-1.234-.2m1.234.2c-.481-.079-.962-.156-1.234-.2m0 0-1.219-.279m1.219.279-1.219-.279m0 0-1.198-.355m1.198.355-1.198-.355m0 0-1.173-.432m1.173.432-1.173-.432m0 0-1.143-.506m1.143.506-1.143-.506m0 0-1.108-.578m1.108.578-1.108-.578m0 0-1.07-.648m1.07.648-1.07-.648m0 0-1.025-.715m1.026.715-1.026-.715m0 0-.977-.78m.977.78-.977-.78m0 0-.925-.84m.925.84-.925-.84m0 0-.87-.898m.87.898-.87-.898m0 0-.81-.952m.81.952-.81-.952m0 0-.748-1.001m.748 1.001-.748-1.001m0 0c-.16-.248-.322-.495-.682-1.048m.682 1.048-.682-1.048m0 0-.613-1.09m.613 1.09-.613-1.09m0 0-.542-1.125m.542 1.126-.542-1.126m0 0-.47-1.16m.47 1.16-.47-1.16m0 0-.393-1.185m.393 1.186-.393-1.186m0 0-.317-1.21m.317 1.21-.317-1.21m0 0-.24-1.227m.24 1.227c-.08-.403-.158-.807-.24-1.227m0 0-.16-1.24m.16 1.24c-.055-.431-.11-.863-.16-1.24m0 0c-.02-.322-.04-.644-.08-1.247m.08 1.248c-.026-.423-.053-.845-.08-1.248m0 0v-1.25m0 1.25v-1.25m0 0 .08-1.247m-.08 1.247.08-1.247m0 0 .16-1.24m-.16 1.24.16-1.24m0 0 .24-1.227m-.24 1.227c.066-.335.13-.67.24-1.227m0 0 .317-1.209m-.317 1.21.317-1.21m0 0 .393-1.186m-.393 1.186.393-1.186m0 0 .47-1.159m-.47 1.159.47-1.159m0 0 .542-1.126m-.542 1.126.542-1.126m0 0 .613-1.09m-.613 1.09.613-1.09m0 0 .682-1.047m-.682 1.048.682-1.048m0 0 .748-1.002m-.748 1.002.748-1.002m0 0 .81-.952m-.81.952.81-.952m0 0 .87-.898m-.87.898.87-.898m0 0 .925-.84m-.925.84.925-.84m0 0 .977-.78m-.977.78.977-.78m0 0 1.026-.714m-1.026.715 1.026-.715m0 0 1.069-.648m-1.07.648 1.07-.648m0 0 1.108-.579m-1.108.579 1.108-.579m0 0 1.143-.506m-1.143.506 1.143-.506m0 0 1.173-.431m-1.173.431 1.173-.431m0 0 1.198-.356m-1.198.356 1.198-.356m0 0 1.219-.278m-1.219.278 1.219-.278m0 0 1.234-.2m-1.234.2 1.234-.2m0 0 1.244-.12m-1.244.12 1.244-.12m0 0 1.25-.04m-1.25.04 1.25-.04m0 0"/></g><g class="label" transform="translate(335.64 692.281)"><rect/><foreignObject width="72.906" height="24"><div xmlns="http://www.w3.org/1999/xhtml" style="display:table-cell;white-space:nowrap;line-height:1.5;max-width:200px;text-align:center"><span class="nodeLabel"><p>Drop + log</p></span></div></foreignObject></g></g></g></g><defs><filter id="my-svg-drop-shadow" width="130%" height="130%"><feDropShadow dx="4" dy="4" flood-color="#000" flood-opacity=".06" stdDeviation="0"/></filter></defs><defs><filter id="my-svg-drop-shadow-small" width="150%" height="150%"><feDropShadow dx="2" dy="2" flood-color="#000" flood-opacity=".06" stdDeviation="0"/></filter></defs></svg>